<?xml version="1.0" standalone="no"?>
<!DOCTYPE svg PUBLIC "-//W3C//DTD SVG 20010904//EN"
 "http://www.w3.org/TR/2001/REC-SVG-20010904/DTD/svg10.dtd">
<svg version="1.0" xmlns="http://www.w3.org/2000/svg"
 width="39.000000pt" height="42.000000pt" viewBox="0 0 39.000000 42.000000"
 preserveAspectRatio="xMidYMid meet">
<metadata>
Created by potrace 1.15, written by Peter Selinger 2001-2017
</metadata>
<g transform="translate(0.000000,42.000000) scale(0.100000,-0.100000)"
fill="#ea6303" stroke="none">
<path d="M333 349 l-50 -51 -33 17 c-41 21 -130 17 -155 -8 -9 -9 -21 -17 -26
-17 -5 0 -18 -19 -30 -42 -41 -81 -13 -178 64 -220 56 -30 167 -19 181 18 6
17 -6 18 -21 3 -22 -22 -85 -28 -131 -12 -94 31 -121 119 -68 220 14 29 50 49
106 60 18 3 100 -26 100 -36 0 -4 -22 -28 -49 -55 l-48 -48 -52 26 c-28 15
-51 23 -51 19 0 -14 95 -153 105 -153 6 0 37 43 70 95 53 85 61 92 68 72 15
-39 12 -110 -7 -139 -9 -14 -13 -29 -8 -32 4 -2 16 8 26 25 19 32 20 112 3
159 -8 22 -4 35 28 83 21 32 36 59 34 62 -3 2 -28 -18 -56 -46z"/>
</g>
</svg>
